<svg width="18" height="18" viewBox="0 0 18 18" fill="none" xmlns="http://www.w3.org/2000/svg">
<path d="M16.1989 1L9.95642 5.99967L11.1108 3.04993L16.1989 1Z" fill="#E2761B" stroke="#E2761B" stroke-linecap="round" stroke-linejoin="round"/>
<path d="M1.79272 1L7.98506 6.04703L6.88713 3.04993L1.79272 1Z" fill="#E4761B" stroke="#E4761B" stroke-linecap="round" stroke-linejoin="round"/>
<path d="M13.9554 12.5906L12.2928 15.3374L15.8501 16.3928L16.8728 12.6515L13.9554 12.5906Z" fill="#E4761B" stroke="#E4761B" stroke-linecap="round" stroke-linejoin="round"/>
<path d="M1.13373 12.6515L2.1501 16.3928L5.7074 15.3374L4.04482 12.5906L1.13373 12.6515Z" fill="#E4761B" stroke="#E4761B" stroke-linecap="round" stroke-linejoin="round"/>
<path d="M5.50416 7.94771L4.51288 9.56465L8.04509 9.73379L7.91961 5.64069L5.50416 7.94771Z" fill="#E4761B" stroke="#E4761B" stroke-linecap="round" stroke-linejoin="round"/>
<path d="M12.4848 7.94819L10.038 5.59381L9.95642 9.73427L13.4824 9.56513L12.4848 7.94819Z" fill="#E4761B" stroke="#E4761B" stroke-linecap="round" stroke-linejoin="round"/>
<path d="M5.70593 15.3363L7.82651 14.22L5.99453 12.6775L5.70593 15.3363Z" fill="#E4761B" stroke="#E4761B" stroke-linecap="round" stroke-linejoin="round"/>
<path d="M10.1678 14.22L12.2946 15.3363L11.9998 12.6775L10.1678 14.22Z" fill="#E4761B" stroke="#E4761B" stroke-linecap="round" stroke-linejoin="round"/>
<path d="M12.2946 15.3361L10.1678 14.2198L10.3372 15.715L10.3184 16.3441L12.2946 15.3361Z" fill="#D7C1B3" stroke="#D7C1B3" stroke-linecap="round" stroke-linejoin="round"/>
<path d="M5.70593 15.3361L7.68221 16.3441L7.66966 15.715L7.82651 14.2198L5.70593 15.3361Z" fill="#D7C1B3" stroke="#D7C1B3" stroke-linecap="round" stroke-linejoin="round"/>
<path d="M7.70997 11.6901L5.94073 11.1286L7.18924 10.5129L7.70997 11.6901Z" fill="#233447" stroke="#233447" stroke-linecap="round" stroke-linejoin="round"/>
<path d="M10.2772 11.6901L10.7979 10.5129L12.0527 11.1286L10.2772 11.6901Z" fill="#233447" stroke="#233447" stroke-linecap="round" stroke-linejoin="round"/>
<path d="M5.70537 15.3378L6.00652 12.5911L4.04279 12.652L5.70537 15.3378Z" fill="#CD6116" stroke="#CD6116" stroke-linecap="round" stroke-linejoin="round"/>
<path d="M11.9946 12.5906L12.2957 15.3374L13.9583 12.6515L11.9946 12.5906Z" fill="#CD6116" stroke="#CD6116" stroke-linecap="round" stroke-linejoin="round"/>
<path d="M13.4824 9.5658L9.95642 9.73493L10.2827 11.6901L10.8034 10.513L12.0582 11.1286L13.4824 9.5658Z" fill="#CD6116" stroke="#CD6116" stroke-linecap="round" stroke-linejoin="round"/>
<path d="M5.94333 11.1286L7.19811 10.513L7.71257 11.6901L8.04509 9.73493L4.51288 9.5658L5.94333 11.1286Z" fill="#CD6116" stroke="#CD6116" stroke-linecap="round" stroke-linejoin="round"/>
<path d="M4.51288 9.5658L5.99352 12.6779L5.94333 11.1286L4.51288 9.5658Z" fill="#E4751F" stroke="#E4751F" stroke-linecap="round" stroke-linejoin="round"/>
<path d="M12.0578 11.1286L11.9951 12.6779L13.482 9.5658L12.0578 11.1286Z" fill="#E4751F" stroke="#E4751F" stroke-linecap="round" stroke-linejoin="round"/>
<path d="M8.04626 9.73444L7.71375 11.6897L8.12782 13.9967L8.22193 10.959L8.04626 9.73444Z" fill="#E4751F" stroke="#E4751F" stroke-linecap="round" stroke-linejoin="round"/>
<path d="M9.95303 9.73444L9.78363 10.9522L9.85892 13.9967L10.2793 11.6897L9.95303 9.73444Z" fill="#E4751F" stroke="#E4751F" stroke-linecap="round" stroke-linejoin="round"/>
<path d="M10.2825 11.6903L9.86218 13.9973L10.1633 14.2205L11.9953 12.678L12.0581 11.1287L10.2825 11.6903Z" fill="#F6851B" stroke="#F6851B" stroke-linecap="round" stroke-linejoin="round"/>
<path d="M5.94073 11.1287L5.99093 12.678L7.8229 14.2205L8.12405 13.9973L7.70997 11.6903L5.94073 11.1287Z" fill="#F6851B" stroke="#F6851B" stroke-linecap="round" stroke-linejoin="round"/>
<path d="M10.3172 16.3455L10.3361 15.7163L10.1792 15.5674H7.81396L7.66966 15.7163L7.68221 16.3455L5.70593 15.3374L6.39606 15.9463L7.79514 16.9949H10.198L11.6034 15.9463L12.2935 15.3374L10.3172 16.3455Z" fill="#C0AD9E" stroke="#C0AD9E" stroke-linecap="round" stroke-linejoin="round"/>
<path d="M10.1639 14.2201L9.86274 13.9969H8.12486L7.82372 14.2201L7.66687 15.7153L7.81117 15.5665H10.1764L10.3333 15.7153L10.1639 14.2201Z" fill="#161616" stroke="#161616" stroke-linecap="round" stroke-linejoin="round"/>
<path d="M16.4668 6.32441L17.0001 3.56411L16.2033 1L10.1678 5.83053L12.4891 7.94812L15.7704 8.98323L16.4982 8.0699L16.1845 7.82634L16.6864 7.33246L16.2974 7.00772L16.7993 6.59503L16.4668 6.32441Z" fill="#763D16" stroke="#763D16" stroke-linecap="round" stroke-linejoin="round"/>
<path d="M1 3.56411L1.53328 6.32441L1.19449 6.59503L1.6964 7.00772L1.3137 7.33246L1.81561 7.82634L1.50191 8.0699L2.22341 8.98323L5.50466 7.94812L7.826 5.83053L1.79051 1L1 3.56411Z" fill="#763D16" stroke="#763D16" stroke-linecap="round" stroke-linejoin="round"/>
<path d="M15.7657 8.98323L12.4844 7.94812L13.482 9.56506L11.9951 12.6772L13.9525 12.6501H16.8699L15.7657 8.98323Z" fill="#F6851B" stroke="#F6851B" stroke-linecap="round" stroke-linejoin="round"/>
<path d="M5.50664 7.94812L2.22539 8.98323L1.13373 12.6501H4.04482L5.996 12.6772L4.51536 9.56506L5.50664 7.94812Z" fill="#F6851B" stroke="#F6851B" stroke-linecap="round" stroke-linejoin="round"/>
<path d="M9.96349 9.7353L10.1705 5.83163L11.1242 3.05103H6.88928L7.83037 5.83163L8.04995 9.7353L8.12524 10.9666L8.13151 13.9975H9.86938L9.88193 10.9666L9.96349 9.7353Z" fill="#F6851B" stroke="#F6851B" stroke-linecap="round" stroke-linejoin="round"/>
</svg>
